<?xml version="1.0" encoding="UTF-8" standalone="no"?>
<!DOCTYPE svg PUBLIC "-//W3C//DTD SVG 1.1//EN"
 "http://www.w3.org/Graphics/SVG/1.1/DTD/svg11.dtd">
<!-- Generated by graphviz version 2.26.3 (20100126.1600)
 -->
<!-- Title: G Pages: 1 -->
<svg width="1522pt" height="548pt"
 viewBox="0.00 0.00 1522.00 548.00" xmlns="http://www.w3.org/2000/svg" xmlns:xlink="http://www.w3.org/1999/xlink">
<g id="graph1" class="graph" transform="scale(1 1) rotate(0) translate(4 544)">
<title>G</title>
<polygon fill="#2a3539" stroke="#2a3539" points="-4,5 -4,-544 1519,-544 1519,5 -4,5"/>
<!-- 0:EntryAccount -->
<g id="node1" class="node"><title>0:EntryAccount</title>
<polygon fill="white" stroke="black" points="1078,-252 994,-252 994,-216 1078,-216 1078,-252"/>
<text text-anchor="middle" x="1036" y="-231" font-family="Arial" font-size="10.00">0:EntryAccount</text>
</g>
<!-- 6:ReportingAccount -->
<g id="node3" class="node"><title>6:ReportingAccount</title>
<polygon fill="white" stroke="black" points="1194,-324 1092,-324 1092,-288 1194,-288 1194,-324"/>
<text text-anchor="middle" x="1143" y="-303" font-family="Arial" font-size="10.00">6:ReportingAccount</text>
</g>
<!-- 0:EntryAccount&#45;&gt;6:ReportingAccount -->
<g id="edge2" class="edge"><title>0:EntryAccount&#45;&gt;6:ReportingAccount</title>
<path fill="none" stroke="white" d="M1063,-252.169C1076.43,-261.207 1092.85,-272.252 1107.3,-281.98"/>
<polygon fill="none" stroke="white" points="1105.76,-285.158 1116.01,-287.837 1109.67,-279.351 1105.76,-285.158"/>
</g>
<!-- 16:AccountHolder -->
<g id="node5" class="node"><title>16:AccountHolder</title>
<polygon fill="white" stroke="black" points="1074,-324 980,-324 980,-288 1074,-288 1074,-324"/>
<text text-anchor="middle" x="1027" y="-303" font-family="Arial" font-size="10.00">16:AccountHolder</text>
</g>
<!-- 0:EntryAccount&#45;&gt;16:AccountHolder -->
<g id="edge4" class="edge"><title>0:EntryAccount&#45;&gt;16:AccountHolder</title>
<path fill="none" stroke="white" d="M1033.73,-252.169C1032.77,-259.869 1031.62,-269.026 1030.55,-277.583"/>
<polygon fill="none" stroke="white" points="1027.07,-277.23 1029.3,-287.587 1034.02,-278.098 1027.07,-277.23"/>
</g>
<!-- 88:MasterFiles -->
<g id="node8" class="node"><title>88:MasterFiles</title>
<polygon fill="white" stroke="black" points="1005,-396 925,-396 925,-360 1005,-360 1005,-396"/>
<text text-anchor="middle" x="965" y="-375" font-family="Arial" font-size="10.00">88:MasterFiles</text>
</g>
<!-- 6:ReportingAccount&#45;&gt;88:MasterFiles -->
<g id="edge16" class="edge"><title>6:ReportingAccount&#45;&gt;88:MasterFiles</title>
<path fill="none" stroke="white" d="M1098.08,-324.169C1072.58,-334.483 1040.62,-347.41 1014.42,-358.011"/>
<polygon fill="none" stroke="white" points="1013,-354.808 1005.04,-361.803 1015.63,-361.297 1013,-354.808"/>
</g>
<!-- 16:AccountHolder&#45;&gt;88:MasterFiles -->
<g id="edge56" class="edge"><title>16:AccountHolder&#45;&gt;88:MasterFiles</title>
<path fill="none" stroke="white" d="M1011.35,-324.169C1004.14,-332.546 995.443,-342.647 987.54,-351.825"/>
<polygon fill="none" stroke="white" points="984.729,-349.725 980.856,-359.587 990.033,-354.293 984.729,-349.725"/>
</g>
<!-- 1:ProductionListItem -->
<g id="node6" class="node"><title>1:ProductionListItem</title>
<polygon fill="white" stroke="black" points="1318,-324 1212,-324 1212,-288 1318,-288 1318,-324"/>
<text text-anchor="middle" x="1265" y="-303" font-family="Arial" font-size="10.00">1:ProductionListItem</text>
</g>
<!-- 1:ProductionListItem&#45;&gt;88:MasterFiles -->
<g id="edge6" class="edge"><title>1:ProductionListItem&#45;&gt;88:MasterFiles</title>
<path fill="none" stroke="white" d="M1211.99,-321.747C1208.95,-322.537 1205.94,-323.294 1203,-324 1122.93,-343.203 1098.23,-337.646 1015.09,-359.933"/>
<polygon fill="none" stroke="white" points="1013.93,-356.621 1005.21,-362.637 1015.78,-363.373 1013.93,-356.621"/>
</g>
<!-- 98:IdentifiableGroup -->
<g id="node44" class="node"><title>98:IdentifiableGroup</title>
<polygon fill="white" stroke="black" points="745,-468 643,-468 643,-432 745,-432 745,-468"/>
<text text-anchor="middle" x="694" y="-447" font-family="Arial" font-size="10.00">98:IdentifiableGroup</text>
</g>
<!-- 88:MasterFiles&#45;&gt;98:IdentifiableGroup -->
<g id="edge94" class="edge"><title>88:MasterFiles&#45;&gt;98:IdentifiableGroup</title>
<path fill="none" stroke="white" d="M924.766,-393.263C921.814,-394.234 918.87,-395.158 916,-396 848.267,-415.87 827.171,-413.636 755.312,-431.768"/>
<polygon fill="none" stroke="white" points="754.131,-428.457 745.318,-434.337 755.874,-435.237 754.131,-428.457"/>
</g>
<!-- 2:PlanningBasis -->
<g id="node9" class="node"><title>2:PlanningBasis</title>
<polygon fill="white" stroke="black" points="145,-396 59,-396 59,-360 145,-360 145,-396"/>
<text text-anchor="middle" x="102" y="-375" font-family="Arial" font-size="10.00">2:PlanningBasis</text>
</g>
<!-- 19:MaterialFlow -->
<g id="node11" class="node"><title>19:MaterialFlow</title>
<polygon fill="white" stroke="black" points="247,-468 163,-468 163,-432 247,-432 247,-468"/>
<text text-anchor="middle" x="205" y="-447" font-family="Arial" font-size="10.00">19:MaterialFlow</text>
</g>
<!-- 2:PlanningBasis&#45;&gt;19:MaterialFlow -->
<g id="edge8" class="edge"><title>2:PlanningBasis&#45;&gt;19:MaterialFlow</title>
<path fill="none" stroke="white" d="M127.991,-396.169C140.922,-405.207 156.722,-416.252 170.638,-425.98"/>
<polygon fill="none" stroke="white" points="168.816,-428.976 179.017,-431.837 172.826,-423.239 168.816,-428.976"/>
</g>
<!-- 99:AllGroups -->
<g id="node14" class="node"><title>99:AllGroups</title>
<polygon fill="white" stroke="black" points="456,-540 384,-540 384,-504 456,-504 456,-540"/>
<text text-anchor="middle" x="420" y="-519" font-family="Arial" font-size="10.00">99:AllGroups</text>
</g>
<!-- 19:MaterialFlow&#45;&gt;99:AllGroups -->
<g id="edge62" class="edge"><title>19:MaterialFlow&#45;&gt;99:AllGroups</title>
<path fill="none" stroke="white" d="M247.221,-464.139C283.818,-476.395 336.659,-494.091 374.254,-506.68"/>
<polygon fill="none" stroke="white" points="373.351,-510.069 383.945,-509.926 375.574,-503.431 373.351,-510.069"/>
</g>
<!-- 3:Production -->
<g id="node12" class="node"><title>3:Production</title>
<polygon fill="white" stroke="black" points="344,-468 274,-468 274,-432 344,-432 344,-468"/>
<text text-anchor="middle" x="309" y="-447" font-family="Arial" font-size="10.00">3:Production</text>
</g>
<!-- 3:Production&#45;&gt;99:AllGroups -->
<g id="edge10" class="edge"><title>3:Production&#45;&gt;99:AllGroups</title>
<path fill="none" stroke="white" d="M337.01,-468.169C351.076,-477.293 368.294,-488.461 383.393,-498.255"/>
<polygon fill="none" stroke="white" points="381.705,-501.332 391.999,-503.837 385.514,-495.459 381.705,-501.332"/>
</g>
<!-- 4:ProductionListHeader -->
<g id="node15" class="node"><title>4:ProductionListHeader</title>
<polygon fill="white" stroke="black" points="118,-468 4.26326e-14,-468 0,-432 118,-432 118,-468"/>
<text text-anchor="middle" x="59" y="-447" font-family="Arial" font-size="10.00">4:ProductionListHeader</text>
</g>
<!-- 4:ProductionListHeader&#45;&gt;99:AllGroups -->
<g id="edge12" class="edge"><title>4:ProductionListHeader&#45;&gt;99:AllGroups</title>
<path fill="none" stroke="white" d="M118.208,-461.809C189.789,-476.085 308.738,-499.809 373.872,-512.8"/>
<polygon fill="none" stroke="white" points="373.357,-516.266 383.848,-514.79 374.726,-509.401 373.357,-516.266"/>
</g>
<!-- 5:BusinessPartner -->
<g id="node17" class="node"><title>5:BusinessPartner</title>
<polygon fill="white" stroke="black" points="857,-108 761,-108 761,-72 857,-72 857,-108"/>
<text text-anchor="middle" x="809" y="-87" font-family="Arial" font-size="10.00">5:BusinessPartner</text>
</g>
<!-- 7:Person -->
<g id="node19" class="node"><title>7:Person</title>
<polygon fill="white" stroke="black" points="837,-180 781,-180 781,-144 837,-144 837,-180"/>
<text text-anchor="middle" x="809" y="-159" font-family="Arial" font-size="10.00">7:Person</text>
</g>
<!-- 5:BusinessPartner&#45;&gt;7:Person -->
<g id="edge14" class="edge"><title>5:BusinessPartner&#45;&gt;7:Person</title>
<path fill="none" stroke="white" d="M809,-108.169C809,-115.869 809,-125.026 809,-133.583"/>
<polygon fill="none" stroke="white" points="805.5,-133.587 809,-143.587 812.5,-133.587 805.5,-133.587"/>
</g>
<!-- 20:OccurrencesOfAddresses -->
<g id="node22" class="node"><title>20:OccurrencesOfAddresses</title>
<polygon fill="white" stroke="black" points="907,-396 765,-396 765,-360 907,-360 907,-396"/>
<text text-anchor="middle" x="836" y="-375" font-family="Arial" font-size="10.00">20:OccurrencesOfAddresses</text>
</g>
<!-- 7:Person&#45;&gt;20:OccurrencesOfAddresses -->
<g id="edge18" class="edge"><title>7:Person&#45;&gt;20:OccurrencesOfAddresses</title>
<path fill="none" stroke="white" d="M780.833,-164.717C706.548,-172.166 509.72,-193.833 491,-216 460.03,-252.672 459.426,-287.847 491,-324 528.26,-366.664 682.097,-351.136 754.844,-360.163"/>
<polygon fill="none" stroke="white" points="754.556,-363.659 764.965,-361.683 755.595,-356.737 754.556,-363.659"/>
</g>
<!-- 28:SchedulingCalendarReferenceObject -->
<g id="node24" class="node"><title>28:SchedulingCalendarReferenceObject</title>
<polygon fill="white" stroke="black" points="976,-252 788,-252 788,-216 976,-216 976,-252"/>
<text text-anchor="middle" x="882" y="-231" font-family="Arial" font-size="10.00">28:SchedulingCalendarReferenceObject</text>
</g>
<!-- 7:Person&#45;&gt;28:SchedulingCalendarReferenceObject -->
<g id="edge20" class="edge"><title>7:Person&#45;&gt;28:SchedulingCalendarReferenceObject</title>
<path fill="none" stroke="white" d="M827.421,-180.169C836.153,-188.781 846.732,-199.215 856.242,-208.595"/>
<polygon fill="none" stroke="white" points="854.007,-211.307 863.585,-215.837 858.923,-206.323 854.007,-211.307"/>
</g>
<!-- 20:OccurrencesOfAddresses&#45;&gt;98:IdentifiableGroup -->
<g id="edge64" class="edge"><title>20:OccurrencesOfAddresses&#45;&gt;98:IdentifiableGroup</title>
<path fill="none" stroke="white" d="M800.167,-396.169C781.584,-405.591 758.701,-417.194 738.944,-427.212"/>
<polygon fill="none" stroke="white" points="737.157,-424.193 729.821,-431.837 740.323,-430.436 737.157,-424.193"/>
</g>
<!-- 26:CalendarReferenceObject -->
<g id="node71" class="node"><title>26:CalendarReferenceObject</title>
<polygon fill="white" stroke="black" points="962,-324 822,-324 822,-288 962,-288 962,-324"/>
<text text-anchor="middle" x="892" y="-303" font-family="Arial" font-size="10.00">26:CalendarReferenceObject</text>
</g>
<!-- 28:SchedulingCalendarReferenceObject&#45;&gt;26:CalendarReferenceObject -->
<g id="edge80" class="edge"><title>28:SchedulingCalendarReferenceObject&#45;&gt;26:CalendarReferenceObject</title>
<path fill="none" stroke="white" d="M884.523,-252.169C885.593,-259.869 886.865,-269.026 888.053,-277.583"/>
<polygon fill="none" stroke="white" points="884.6,-278.163 889.443,-287.587 891.534,-277.2 884.6,-278.163"/>
</g>
<!-- 8:ProductionListOriginator -->
<g id="node25" class="node"><title>8:ProductionListOriginator</title>
<polygon fill="white" stroke="black" points="174,-252 46,-252 46,-216 174,-216 174,-252"/>
<text text-anchor="middle" x="110" y="-231" font-family="Arial" font-size="10.00">8:ProductionListOriginator</text>
</g>
<!-- 8:ProductionListOriginator&#45;&gt;3:Production -->
<g id="edge22" class="edge"><title>8:ProductionListOriginator&#45;&gt;3:Production</title>
<path fill="none" stroke="white" d="M135.738,-252.11C166.804,-274.835 219.421,-316.174 256,-360 272.128,-379.323 286.348,-404.151 295.987,-422.833"/>
<polygon fill="none" stroke="white" points="292.971,-424.626 300.597,-431.981 299.223,-421.476 292.971,-424.626"/>
</g>
<!-- 8:ProductionListOriginator&#45;&gt;4:ProductionListHeader -->
<g id="edge24" class="edge"><title>8:ProductionListOriginator&#45;&gt;4:ProductionListHeader</title>
<path fill="none" stroke="white" d="M80.7816,-252.183C68.8881,-261.317 56.4427,-273.534 50,-288 30.6109,-331.536 40.7812,-388.285 49.9084,-421.767"/>
<polygon fill="none" stroke="white" points="46.6607,-423.136 52.7963,-431.774 53.3862,-421.195 46.6607,-423.136"/>
</g>
<!-- 29:MaterialRequired -->
<g id="node29" class="node"><title>29:MaterialRequired</title>
<polygon fill="white" stroke="black" points="161,-324 59,-324 59,-288 161,-288 161,-324"/>
<text text-anchor="middle" x="110" y="-303" font-family="Arial" font-size="10.00">29:MaterialRequired</text>
</g>
<!-- 8:ProductionListOriginator&#45;&gt;29:MaterialRequired -->
<g id="edge26" class="edge"><title>8:ProductionListOriginator&#45;&gt;29:MaterialRequired</title>
<path fill="none" stroke="white" d="M110,-252.169C110,-259.869 110,-269.026 110,-277.583"/>
<polygon fill="none" stroke="white" points="106.5,-277.587 110,-287.587 113.5,-277.587 106.5,-277.587"/>
</g>
<!-- 29:MaterialRequired&#45;&gt;2:PlanningBasis -->
<g id="edge82" class="edge"><title>29:MaterialRequired&#45;&gt;2:PlanningBasis</title>
<path fill="none" stroke="white" d="M107.981,-324.169C107.126,-331.869 106.108,-341.026 105.157,-349.583"/>
<polygon fill="none" stroke="white" points="101.672,-349.261 104.046,-359.587 108.629,-350.034 101.672,-349.261"/>
</g>
<!-- 9:MaterialMover -->
<g id="node30" class="node"><title>9:MaterialMover</title>
<polygon fill="white" stroke="black" points="247,-396 163,-396 163,-360 247,-360 247,-396"/>
<text text-anchor="middle" x="205" y="-375" font-family="Arial" font-size="10.00">9:MaterialMover</text>
</g>
<!-- 9:MaterialMover&#45;&gt;19:MaterialFlow -->
<g id="edge30" class="edge"><title>9:MaterialMover&#45;&gt;19:MaterialFlow</title>
<path fill="none" stroke="white" d="M205,-396.169C205,-403.869 205,-413.026 205,-421.583"/>
<polygon fill="none" stroke="white" points="201.5,-421.587 205,-431.587 208.5,-421.587 201.5,-421.587"/>
</g>
<!-- 9:MaterialMover&#45;&gt;3:Production -->
<g id="edge28" class="edge"><title>9:MaterialMover&#45;&gt;3:Production</title>
<path fill="none" stroke="white" d="M231.244,-396.169C244.299,-405.207 260.253,-416.252 274.305,-425.98"/>
<polygon fill="none" stroke="white" points="272.551,-429.023 282.765,-431.837 276.535,-423.267 272.551,-429.023"/>
</g>
<!-- 10:ProcessHeader -->
<g id="node33" class="node"><title>10:ProcessHeader</title>
<polygon fill="white" stroke="black" points="444,-324 348,-324 348,-288 444,-288 444,-324"/>
<text text-anchor="middle" x="396" y="-303" font-family="Arial" font-size="10.00">10:ProcessHeader</text>
</g>
<!-- 10:ProcessHeader&#45;&gt;2:PlanningBasis -->
<g id="edge32" class="edge"><title>10:ProcessHeader&#45;&gt;2:PlanningBasis</title>
<path fill="none" stroke="white" d="M347.844,-315.066C300.826,-324.293 227.139,-339.746 154.75,-359.941"/>
<polygon fill="none" stroke="white" points="153.684,-356.605 145.01,-362.69 155.585,-363.342 153.684,-356.605"/>
</g>
<!-- 10:ProcessHeader&#45;&gt;20:OccurrencesOfAddresses -->
<g id="edge36" class="edge"><title>10:ProcessHeader&#45;&gt;20:OccurrencesOfAddresses</title>
<path fill="none" stroke="white" d="M444.211,-320.818C448.847,-321.994 453.497,-323.081 458,-324 585.52,-350.034 622.727,-337.957 754.872,-359.914"/>
<polygon fill="none" stroke="white" points="754.53,-363.406 764.974,-361.628 755.701,-356.505 754.53,-363.406"/>
</g>
<!-- 11:ProductionHeader -->
<g id="node36" class="node"><title>11:ProductionHeader</title>
<polygon fill="white" stroke="black" points="409,-396 303,-396 303,-360 409,-360 409,-396"/>
<text text-anchor="middle" x="356" y="-375" font-family="Arial" font-size="10.00">11:ProductionHeader</text>
</g>
<!-- 10:ProcessHeader&#45;&gt;11:ProductionHeader -->
<g id="edge34" class="edge"><title>10:ProcessHeader&#45;&gt;11:ProductionHeader</title>
<path fill="none" stroke="white" d="M385.906,-324.169C381.44,-332.208 376.093,-341.833 371.162,-350.708"/>
<polygon fill="none" stroke="white" points="368.027,-349.145 366.23,-359.587 374.146,-352.545 368.027,-349.145"/>
</g>
<!-- 25:DocumentSource -->
<g id="node39" class="node"><title>25:DocumentSource</title>
<polygon fill="white" stroke="black" points="591,-468 487,-468 487,-432 591,-432 591,-468"/>
<text text-anchor="middle" x="539" y="-447" font-family="Arial" font-size="10.00">25:DocumentSource</text>
</g>
<!-- 10:ProcessHeader&#45;&gt;25:DocumentSource -->
<g id="edge38" class="edge"><title>10:ProcessHeader&#45;&gt;25:DocumentSource</title>
<path fill="none" stroke="white" d="M414.111,-324.238C439.361,-349.665 485.251,-395.875 513.819,-424.643"/>
<polygon fill="none" stroke="white" points="511.506,-427.281 521.036,-431.91 516.473,-422.348 511.506,-427.281"/>
</g>
<!-- 27:ServiceProcess -->
<g id="node41" class="node"><title>27:ServiceProcess</title>
<polygon fill="white" stroke="black" points="469,-468 371,-468 371,-432 469,-432 469,-468"/>
<text text-anchor="middle" x="420" y="-447" font-family="Arial" font-size="10.00">27:ServiceProcess</text>
</g>
<!-- 10:ProcessHeader&#45;&gt;27:ServiceProcess -->
<g id="edge40" class="edge"><title>10:ProcessHeader&#45;&gt;27:ServiceProcess</title>
<path fill="none" stroke="white" d="M405.482,-324.462C410.209,-334.655 415.45,-347.709 418,-360 422.226,-380.372 422.598,-403.894 421.981,-421.781"/>
<polygon fill="none" stroke="white" points="418.481,-421.7 421.51,-431.853 425.473,-422.027 418.481,-421.7"/>
</g>
<!-- 11:ProductionHeader&#45;&gt;3:Production -->
<g id="edge42" class="edge"><title>11:ProductionHeader&#45;&gt;3:Production</title>
<path fill="none" stroke="white" d="M344.14,-396.169C338.837,-404.292 332.476,-414.036 326.633,-422.988"/>
<polygon fill="none" stroke="white" points="323.555,-421.3 321.02,-431.587 329.417,-425.126 323.555,-421.3"/>
</g>
<!-- 11:ProductionHeader&#45;&gt;98:IdentifiableGroup -->
<g id="edge44" class="edge"><title>11:ProductionHeader&#45;&gt;98:IdentifiableGroup</title>
<path fill="none" stroke="white" d="M409.184,-389.329C469.889,-402.26 569.008,-423.375 632.853,-436.975"/>
<polygon fill="none" stroke="white" points="632.276,-440.43 642.786,-439.09 633.734,-433.584 632.276,-440.43"/>
</g>
<!-- 25:DocumentSource&#45;&gt;99:AllGroups -->
<g id="edge74" class="edge"><title>25:DocumentSource&#45;&gt;99:AllGroups</title>
<path fill="none" stroke="white" d="M508.971,-468.169C493.75,-477.378 475.087,-488.67 458.792,-498.529"/>
<polygon fill="none" stroke="white" points="456.763,-495.666 450.019,-503.837 460.387,-501.655 456.763,-495.666"/>
</g>
<!-- 27:ServiceProcess&#45;&gt;99:AllGroups -->
<g id="edge78" class="edge"><title>27:ServiceProcess&#45;&gt;99:AllGroups</title>
<path fill="none" stroke="white" d="M420,-468.169C420,-475.869 420,-485.026 420,-493.583"/>
<polygon fill="none" stroke="white" points="416.5,-493.587 420,-503.587 423.5,-493.587 416.5,-493.587"/>
</g>
<!-- 98:IdentifiableGroup&#45;&gt;99:AllGroups -->
<g id="edge96" class="edge"><title>98:IdentifiableGroup&#45;&gt;99:AllGroups</title>
<path fill="none" stroke="white" d="M642.784,-463.458C591.921,-476.824 514.66,-497.126 465.785,-509.969"/>
<polygon fill="none" stroke="white" points="464.887,-506.586 456.105,-512.512 466.666,-513.356 464.887,-506.586"/>
</g>
<!-- 12:DataDescription -->
<g id="node45" class="node"><title>12:DataDescription</title>
<polygon fill="white" stroke="black" points="1418,-252 1320,-252 1320,-216 1418,-216 1418,-252"/>
<text text-anchor="middle" x="1369" y="-231" font-family="Arial" font-size="10.00">12:DataDescription</text>
</g>
<!-- 13:FieldList -->
<g id="node47" class="node"><title>13:FieldList</title>
<polygon fill="white" stroke="black" points="1402,-324 1336,-324 1336,-288 1402,-288 1402,-324"/>
<text text-anchor="middle" x="1369" y="-303" font-family="Arial" font-size="10.00">13:FieldList</text>
</g>
<!-- 12:DataDescription&#45;&gt;13:FieldList -->
<g id="edge46" class="edge"><title>12:DataDescription&#45;&gt;13:FieldList</title>
<path fill="none" stroke="white" d="M1369,-252.169C1369,-259.869 1369,-269.026 1369,-277.583"/>
<polygon fill="none" stroke="white" points="1365.5,-277.587 1369,-287.587 1372.5,-277.587 1365.5,-277.587"/>
</g>
<!-- 13:FieldList&#45;&gt;88:MasterFiles -->
<g id="edge48" class="edge"><title>13:FieldList&#45;&gt;88:MasterFiles</title>
<path fill="none" stroke="white" d="M1335.84,-321.244C1332.89,-322.285 1329.91,-323.226 1327,-324 1194.84,-359.115 1152.23,-329.108 1015.18,-360.058"/>
<polygon fill="none" stroke="white" points="1014.09,-356.718 1005.14,-362.394 1015.68,-363.536 1014.09,-356.718"/>
</g>
<!-- 14:FinancialEntryObject -->
<g id="node49" class="node"><title>14:FinancialEntryObject</title>
<polygon fill="white" stroke="black" points="623,-396 503,-396 503,-360 623,-360 623,-396"/>
<text text-anchor="middle" x="563" y="-375" font-family="Arial" font-size="10.00">14:FinancialEntryObject</text>
</g>
<!-- 14:FinancialEntryObject&#45;&gt;25:DocumentSource -->
<g id="edge50" class="edge"><title>14:FinancialEntryObject&#45;&gt;25:DocumentSource</title>
<path fill="none" stroke="white" d="M556.944,-396.169C554.349,-403.954 551.258,-413.227 548.378,-421.865"/>
<polygon fill="none" stroke="white" points="544.98,-420.993 545.138,-431.587 551.62,-423.207 544.98,-420.993"/>
</g>
<!-- 14:FinancialEntryObject&#45;&gt;98:IdentifiableGroup -->
<g id="edge52" class="edge"><title>14:FinancialEntryObject&#45;&gt;98:IdentifiableGroup</title>
<path fill="none" stroke="white" d="M596.057,-396.169C612.968,-405.463 633.739,-416.879 651.794,-426.803"/>
<polygon fill="none" stroke="white" points="650.504,-430.088 660.954,-431.837 653.876,-423.953 650.504,-430.088"/>
</g>
<!-- 15:StatisticalEntryObject -->
<g id="node52" class="node"><title>15:StatisticalEntryObject</title>
<polygon fill="white" stroke="black" points="1147,-396 1023,-396 1023,-360 1147,-360 1147,-396"/>
<text text-anchor="middle" x="1085" y="-375" font-family="Arial" font-size="10.00">15:StatisticalEntryObject</text>
</g>
<!-- 15:StatisticalEntryObject&#45;&gt;98:IdentifiableGroup -->
<g id="edge54" class="edge"><title>15:StatisticalEntryObject&#45;&gt;98:IdentifiableGroup</title>
<path fill="none" stroke="white" d="M1022.75,-394.197C1019.8,-394.834 1016.87,-395.439 1014,-396 902.637,-417.757 869.77,-407.753 755.118,-431.937"/>
<polygon fill="none" stroke="white" points="754.292,-428.535 745.251,-434.059 755.764,-435.378 754.292,-428.535"/>
</g>
<!-- 17:TradingPartner -->
<g id="node55" class="node"><title>17:TradingPartner</title>
<polygon fill="white" stroke="black" points="855,-36 763,-36 763,-1.77636e-14 855,-3.55271e-15 855,-36"/>
<text text-anchor="middle" x="809" y="-15" font-family="Arial" font-size="10.00">17:TradingPartner</text>
</g>
<!-- 17:TradingPartner&#45;&gt;5:BusinessPartner -->
<g id="edge58" class="edge"><title>17:TradingPartner&#45;&gt;5:BusinessPartner</title>
<path fill="none" stroke="white" d="M809,-36.1686C809,-43.869 809,-53.0257 809,-61.5834"/>
<polygon fill="none" stroke="white" points="805.5,-61.5867 809,-71.5867 812.5,-61.5868 805.5,-61.5867"/>
</g>
<!-- 18:ServiceProduct -->
<g id="node57" class="node"><title>18:ServiceProduct</title>
<polygon fill="white" stroke="black" points="1514,-324 1420,-324 1420,-288 1514,-288 1514,-324"/>
<text text-anchor="middle" x="1467" y="-303" font-family="Arial" font-size="10.00">18:ServiceProduct</text>
</g>
<!-- 18:ServiceProduct&#45;&gt;88:MasterFiles -->
<g id="edge60" class="edge"><title>18:ServiceProduct&#45;&gt;88:MasterFiles</title>
<path fill="none" stroke="white" d="M1419.84,-321.967C1416.87,-322.722 1413.9,-323.41 1411,-324 1240.61,-358.667 1188.77,-322.515 1015.11,-360.102"/>
<polygon fill="none" stroke="white" points="1014.13,-356.734 1005.13,-362.314 1015.65,-363.568 1014.13,-356.734"/>
</g>
<!-- 21:Queue -->
<g id="node61" class="node"><title>21:Queue</title>
<polygon fill="white" stroke="black" points="821,-468 763,-468 763,-432 821,-432 821,-468"/>
<text text-anchor="middle" x="792" y="-447" font-family="Arial" font-size="10.00">21:Queue</text>
</g>
<!-- 21:Queue&#45;&gt;99:AllGroups -->
<g id="edge66" class="edge"><title>21:Queue&#45;&gt;99:AllGroups</title>
<path fill="none" stroke="white" d="M762.871,-464.798C759.918,-465.994 756.928,-467.09 754,-468 654.168,-499.028 531.711,-513.013 466.342,-518.656"/>
<polygon fill="none" stroke="white" points="466.027,-515.17 456.353,-519.491 466.61,-522.146 466.027,-515.17"/>
</g>
<!-- 22:ProductAndProductRange -->
<g id="node63" class="node"><title>22:ProductAndProductRange</title>
<polygon fill="white" stroke="black" points="642,-252 500,-252 500,-216 642,-216 642,-252"/>
<text text-anchor="middle" x="571" y="-231" font-family="Arial" font-size="10.00">22:ProductAndProductRange</text>
</g>
<!-- 30:ProductRangeElement -->
<g id="node65" class="node"><title>30:ProductRangeElement</title>
<polygon fill="white" stroke="black" points="628,-324 500,-324 500,-288 628,-288 628,-324"/>
<text text-anchor="middle" x="564" y="-303" font-family="Arial" font-size="10.00">30:ProductRangeElement</text>
</g>
<!-- 22:ProductAndProductRange&#45;&gt;30:ProductRangeElement -->
<g id="edge68" class="edge"><title>22:ProductAndProductRange&#45;&gt;30:ProductRangeElement</title>
<path fill="none" stroke="white" d="M569.234,-252.169C568.485,-259.869 567.595,-269.026 566.763,-277.583"/>
<polygon fill="none" stroke="white" points="563.274,-277.295 565.79,-287.587 570.242,-277.972 563.274,-277.295"/>
</g>
<!-- 30:ProductRangeElement&#45;&gt;88:MasterFiles -->
<g id="edge84" class="edge"><title>30:ProductRangeElement&#45;&gt;88:MasterFiles</title>
<path fill="none" stroke="white" d="M628.004,-322.218C631.039,-322.849 634.049,-323.448 637,-324 756.773,-346.419 792.744,-331.083 915.103,-360.082"/>
<polygon fill="none" stroke="white" points="914.303,-363.489 924.845,-362.44 915.95,-356.685 914.303,-363.489"/>
</g>
<!-- 23:PurchasingAndSalesProcess -->
<g id="node66" class="node"><title>23:PurchasingAndSalesProcess</title>
<polygon fill="white" stroke="black" points="1321,-396 1165,-396 1165,-360 1321,-360 1321,-396"/>
<text text-anchor="middle" x="1243" y="-375" font-family="Arial" font-size="10.00">23:PurchasingAndSalesProcess</text>
</g>
<!-- 23:PurchasingAndSalesProcess&#45;&gt;98:IdentifiableGroup -->
<g id="edge70" class="edge"><title>23:PurchasingAndSalesProcess&#45;&gt;98:IdentifiableGroup</title>
<path fill="none" stroke="white" d="M1164.82,-394.616C1161.85,-395.108 1158.9,-395.572 1156,-396 981.75,-421.741 931.932,-398.911 755.108,-432.008"/>
<polygon fill="none" stroke="white" points="754.385,-428.583 745.217,-433.892 755.695,-435.459 754.385,-428.583"/>
</g>
<!-- 24:ValuationProcess -->
<g id="node68" class="node"><title>24:ValuationProcess</title>
<polygon fill="white" stroke="black" points="747,-396 641,-396 641,-360 747,-360 747,-396"/>
<text text-anchor="middle" x="694" y="-375" font-family="Arial" font-size="10.00">24:ValuationProcess</text>
</g>
<!-- 24:ValuationProcess&#45;&gt;98:IdentifiableGroup -->
<g id="edge72" class="edge"><title>24:ValuationProcess&#45;&gt;98:IdentifiableGroup</title>
<path fill="none" stroke="white" d="M694,-396.169C694,-403.869 694,-413.026 694,-421.583"/>
<polygon fill="none" stroke="white" points="690.5,-421.587 694,-431.587 697.5,-421.587 690.5,-421.587"/>
</g>
<!-- 26:CalendarReferenceObject&#45;&gt;88:MasterFiles -->
<g id="edge76" class="edge"><title>26:CalendarReferenceObject&#45;&gt;88:MasterFiles</title>
<path fill="none" stroke="white" d="M910.421,-324.169C919.153,-332.781 929.732,-343.215 939.242,-352.595"/>
<polygon fill="none" stroke="white" points="937.007,-355.307 946.585,-359.837 941.923,-350.323 937.007,-355.307"/>
</g>
<!-- 31:SubledgerAccount -->
<g id="node77" class="node"><title>31:SubledgerAccount</title>
<polygon fill="white" stroke="black" points="1028,-108 918,-108 918,-72 1028,-72 1028,-108"/>
<text text-anchor="middle" x="973" y="-87" font-family="Arial" font-size="10.00">31:SubledgerAccount</text>
</g>
<!-- 31:SubledgerAccount&#45;&gt;0:EntryAccount -->
<g id="edge86" class="edge"><title>31:SubledgerAccount&#45;&gt;0:EntryAccount</title>
<path fill="none" stroke="white" d="M980.979,-108.238C991.819,-133.015 1011.29,-177.529 1023.93,-206.406"/>
<polygon fill="none" stroke="white" points="1020.87,-208.152 1028.09,-215.91 1027.28,-205.346 1020.87,-208.152"/>
</g>
<!-- 31:SubledgerAccount&#45;&gt;7:Person -->
<g id="edge88" class="edge"><title>31:SubledgerAccount&#45;&gt;7:Person</title>
<path fill="none" stroke="white" d="M928.972,-108.074C906.53,-117.435 878.653,-129.286 846.418,-143.898"/>
<polygon fill="none" stroke="white" points="844.861,-140.762 837.212,-148.093 847.763,-147.132 844.861,-140.762"/>
</g>
<!-- 32:CostCentreCostObjectProject -->
<g id="node80" class="node"><title>32:CostCentreCostObjectProject</title>
<polygon fill="white" stroke="black" points="804,-324 646,-324 646,-288 804,-288 804,-324"/>
<text text-anchor="middle" x="725" y="-303" font-family="Arial" font-size="10.00">32:CostCentreCostObjectProject</text>
</g>
<!-- 32:CostCentreCostObjectProject&#45;&gt;88:MasterFiles -->
<g id="edge90" class="edge"><title>32:CostCentreCostObjectProject&#45;&gt;88:MasterFiles</title>
<path fill="none" stroke="white" d="M793.894,-324.109C827.965,-333.386 869.85,-345.267 915.239,-359.859"/>
<polygon fill="none" stroke="white" points="914.384,-363.261 924.976,-363.014 916.541,-356.602 914.384,-363.261"/>
</g>
<!-- 87:AdditionalTable -->
<g id="node82" class="node"><title>87:AdditionalTable</title>
<polygon fill="white" stroke="black" points="949,-180 855,-180 855,-144 949,-144 949,-180"/>
<text text-anchor="middle" x="902" y="-159" font-family="Arial" font-size="10.00">87:AdditionalTable</text>
</g>
<!-- 87:AdditionalTable&#45;&gt;28:SchedulingCalendarReferenceObject -->
<g id="edge92" class="edge"><title>87:AdditionalTable&#45;&gt;28:SchedulingCalendarReferenceObject</title>
<path fill="none" stroke="white" d="M896.953,-180.169C894.791,-187.954 892.215,-197.227 889.815,-205.865"/>
<polygon fill="none" stroke="white" points="886.419,-205.015 887.115,-215.587 893.164,-206.888 886.419,-205.015"/>
</g>
</g>
</svg>
